<svg width="21" height="20" viewBox="0 0 21 20" fill="none" xmlns="http://www.w3.org/2000/svg">
<path d="M5.16813 15.25L7.96375 10L11.1575 12.8394C11.2575 12.9282 11.3765 12.993 11.5055 13.0286C11.6344 13.0642 11.7698 13.0699 11.9012 13.045C12.0339 13.0202 12.159 12.965 12.2668 12.8838C12.3745 12.8026 12.4621 12.6975 12.5225 12.5769L14.9375 7.76875L14.1413 7.375L11.7394 12.1875L8.54563 9.34812C8.44815 9.25748 8.33129 9.19026 8.20392 9.1516C8.07655 9.11293 7.94204 9.10384 7.81063 9.125C7.68085 9.14653 7.55759 9.19705 7.45003 9.2728C7.34247 9.34854 7.25338 9.44757 7.18937 9.5625L4.875 13.9375V3.875H4V15.25C4 15.4821 4.09219 15.7046 4.25628 15.8687C4.42038 16.0328 4.64294 16.125 4.875 16.125H16.25V15.25H5.16813Z" fill="black" stroke="black" stroke-width="0.5"/>
</svg>
